<svg width="32" height="45" viewBox="0 0 22 32" stroke-width="1.5" fill="none" xmlns="http://www.w3.org/2000/svg">
<path d="M22 10.5C22 16.0228 14.5 29.8913 11 34.8913C7.5 30.3913 0 16.0228 0 10.5C0 4.97715 5.47715 0.5 11 0.5C16.5228 0.5 22 4.97715 22 10.5Z" fill="white"/>
<path d="M21.5 10.5C21.5 11.7917 21.056 13.6273 20.3018 15.7721C19.5522 17.9035 18.5137 20.293 17.3624 22.6741C15.225 27.0943 12.7154 31.4518 10.9818 34.0331C9.26009 31.6565 6.76807 27.3251 4.63874 22.8639C3.48768 20.4523 2.44898 18.0159 1.69917 15.845C0.944576 13.6604 0.5 11.7929 0.5 10.5C0.5 7.9102 1.78455 5.5393 3.75895 3.80455C5.73462 2.06868 8.36938 1 11 1C13.6306 1 16.2654 2.06868 18.241 3.80455C20.2154 5.5393 21.5 7.9102 21.5 10.5Z" stroke="#17143A" stroke-opacity="0.87"/>
</svg>
